inDegrees=no
num_controls=7
num_derivatives=13
num_iterations=131
num_multipliers=7
num_parameters=0
num_slacks=7
num_states=26
objective=5.436867
objective_accelerations=0.527745
objective_balance=0.009200
objective_effort=0.422000
objective_height=4.431103
objective_ligament=0.046818
solver_duration=1094.362475
status=Solve_Succeeded
success=true
DataType=double
version=3
OpenSimVersion=4.4-2022-07-23-0e9fedc
endheader
time	/jointset/ground_pelvis/pelvis_tilt/value	/jointset/ground_pelvis/pelvis_tx/value	/jointset/ground_pelvis/pelvis_ty/value	/jointset/hip_r/hip_flexion_r/value	/jointset/hip_r/hip_adduction_r/value	/jointset/hip_r/hip_rotation_r/value	/jointset/back/lumbar_extension/value	/jointset/patellofemoral_r/patellar_flexion_r/value	/jointset/knee_r/knee_flexion_r/value	/jointset/knee_r/knee_adduction_r/value	/jointset/knee_r/knee_rotation_r/value	/jointset/ankle_r/ankle_angle_r/value	/jointset/subtalar_r/subtalar_angle_r/value	/jointset/ground_pelvis/pelvis_tilt/speed	/jointset/ground_pelvis/pelvis_tx/speed	/jointset/ground_pelvis/pelvis_ty/speed	/jointset/hip_r/hip_flexion_r/speed	/jointset/hip_r/hip_adduction_r/speed	/jointset/hip_r/hip_rotation_r/speed	/jointset/back/lumbar_extension/speed	/jointset/patellofemoral_r/patellar_flexion_r/speed	/jointset/knee_r/knee_flexion_r/speed	/jointset/knee_r/knee_adduction_r/speed	/jointset/knee_r/knee_rotation_r/speed	/jointset/ankle_r/ankle_angle_r/speed	/jointset/subtalar_r/subtalar_angle_r/speed	/forceset/tau_hip_flexion_r	/forceset/tau_hip_adduction_r	/forceset/tau_hip_rotation_r	/forceset/tau_knee_flexion_r	/forceset/tau_ankle_angle_r	/forceset/tau_subtalar_angle_r	/forceset/tau_lumbar_extension	lambda_cid13_p0	lambda_cid14_p0	lambda_cid14_p1	lambda_cid14_p2	lambda_cid14_p3	lambda_cid14_p4	lambda_cid14_p5	/jointset/ground_pelvis/pelvis_tilt/accel	/jointset/ground_pelvis/pelvis_tx/accel	/jointset/ground_pelvis/pelvis_ty/accel	/jointset/hip_r/hip_flexion_r/accel	/jointset/hip_r/hip_adduction_r/accel	/jointset/hip_r/hip_rotation_r/accel	/jointset/back/lumbar_extension/accel	/jointset/patellofemoral_r/patellar_flexion_r/accel	/jointset/knee_r/knee_flexion_r/accel	/jointset/knee_r/knee_adduction_r/accel	/jointset/knee_r/knee_rotation_r/accel	/jointset/ankle_r/ankle_angle_r/accel	/jointset/subtalar_r/subtalar_angle_r/accel	gamma_cid13_p0	gamma_cid14_p0	gamma_cid14_p1	gamma_cid14_p2	gamma_cid14_p3	gamma_cid14_p4	gamma_cid14_p5
1	-0.1881457992971089	-0.002849255187409615	0.6666417105224585	1.305703438979346	-0.2354065812270414	-0.1067994873074263	-0.7853902512595284	1.434882946474735	1.434882946474713	-0.1744477633029013	0.1740459991239272	0.4362864648023264	0.1817568375760227	0.0676408524419384	0.005792784525931033	0.01684630075719125	-0.1035339222486742	-0.001289261750365854	0.003808154466994826	0.001274703499818968	-0.02412234735714778	-0.0241223473571469	0.01291996430270383	-0.000127562578981624	0.01046132635906258	0.002965197248061715	-0.3040253611758914	0.02397339160645175	0.01387215538017086	-0.4517179103341966	-0.02576901940621629	0.01117403784415479	0.3406074973299746	-0.04209125833907909	-58.80900253277882	-8.021507962810889	4.644748942878071	8.241519645564111	-760.2199296186729	75.6751572930736	1.134793635438938	0.1370548939929843	1.654206123993143	-4.927884673215896	0.2658408868924229	-0.3898881583094692	0.09166064716363773	-4.811936180873895	-4.811936180873701	0.8336141864111909	-0.004827772072034818	-1.188639203347617	-0.1125365306509654	6.517388622517953e-10	8.765004723682531e-11	1.591232096859196e-08	9.468910566159196e-09	5.623684930975752e-10	-4.45403766701733e-09	2.489719616178648e-08
1.01	-0.1874137166141328	-0.00278430068761018	0.6668926938951125	1.304422872384192	-0.2354064184020719	-0.1067782914234404	-0.7853703202735041	1.43440174796575	1.434401747965658	-0.1742740742112147	0.1740443045564392	0.4363318383892986	0.1817804508369736	0.07872935235800856	0.007217998949610067	0.03334391498685563	-0.1525478943046599	0.001310570837025582	0.0004548625058423532	0.002901747725402421	-0.07210422060220324	-0.07210422060220177	0.02185366405276174	-0.0002024570151325639	-0.001363222571676435	0.001747720035618997	-0.3047588630865093	0.02402935752833465	0.01392696898753538	-0.4515463483741017	-0.02610131761799409	0.01117124845745592	0.3416177621576226	-0.04208682534104999	-58.94275708454813	-8.040412765199893	4.641222540566677	8.062817937366617	-760.7822126890926	75.65571680975802	1.088930226055647	0.1482370059998924	1.64656822962595	-4.883426442256906	0.2553721462826202	-0.3044707207105499	0.2267643975266395	-4.789343780401174	-4.789343780401458	0.9286198823347762	-0.007474043983138634	-1.175855414646791	-0.1278017184026005	4.756370298742888e-09	6.066916930206005e-09	4.156398631205312e-08	4.427534294682988e-08	-1.170630908929224e-09	-1.006733260178047e-08	7.697682763566842e-08
1.02	-0.1865721385207194	-0.0027044975856857	0.6673084592414962	1.302653111474194	-0.235380593710929	-0.1067899126602063	-0.7853284112271696	1.433441124547498	1.433441124547469	-0.1740099737193853	0.1740421302916494	0.4362596679526297	0.1817915996454271	0.08953993452860545	0.008762504950939836	0.04980269550323967	-0.201372785179407	0.003843111489248235	-0.002755269683016719	0.005670315441768064	-0.1200073292104546	-0.1200073292104536	0.03100224432407684	-0.0002235020351749406	-0.01304747857079745	0.0004723067487396931	-0.3054923649980945	0.02408532345013456	0.01398178259514998	-0.4513747864140299	-0.02643361582965368	0.01116845907065752	0.3426280269843839	-0.04209030146347174	-59.08484914518864	-8.056062484262441	4.631791181437203	7.888850390063583	-761.4799601242429	75.67505812625836	1.07921008634444	0.1609132095230323	1.64643938133707	-4.890068436968117	0.2523824998587502	-0.3612562038510314	0.3199653453176973	-4.796183253513126	-4.796183253513145	0.8765902906622738	0.005942111149574993	-1.160580617024177	-0.12412374553819	9.63435612015338e-09	1.429343368170651e-08	6.824454585852054e-08	8.382717573964201e-08	-6.325030375715078e-09	-1.585484128904608e-08	1.350196686479487e-07
1.03	-0.1856237813679054	-0.002608724817710418	0.6678885742663855	1.300396161115162	-0.2353297537621393	-0.1068330160111896	-0.7852534805595852	1.432001813940169	1.432001813940091	-0.1736534257681199	0.1740400047774375	0.4360711286136866	0.181789638222728	0.1000894943143895	0.01040482238265443	0.06620921990497632	-0.2499722902481403	0.006316714188404386	-0.005848654829687442	0.00947159457340746	-0.1678462689722068	-0.1678462689722081	0.04033366794982021	-0.0001955658472917966	-0.02465970861296994	-0.00088006050533321	-0.3058367022275856	0.02417305183440926	0.01407171951870528	-0.4508389511525049	-0.0269212342759357	0.01115249495206534	0.3432410238382513	-0.04210816092497641	-59.25374849133692	-8.078718796333614	4.619583451414669	7.879622800080285	-761.7198421876822	75.62371090835389	1.03653341791042	0.167804736621314	1.636091170270662	-4.838137579359891	0.2436411209035435	-0.2808576371819363	0.433575668043378	-4.776473778673837	-4.776473778674308	0.9653659071204803	0.002157154145599997	-1.161442029063036	-0.1430840015621621	1.452023331283856e-08	2.254288155431448e-08	9.493560432542682e-08	1.234274309856393e-07	-1.151434208805972e-08	-2.164412766766375e-08	1.931233587371514e-07
